{"title":"The Killer Inside Me 2010 DVDrip Englisk Klam","uid":6542317,"size":1357700880,"categoryP":"video","categoryS":"movies","magnet":"?xt=urn:btih:1ae785bbc019d90548eb73550792c6e661ad2d52&amp;dn=The+Killer+Inside+Me+2010+DVDrip+Englisk+Klam&amp;tr=udp%3A%2F%2Ftracker.openbittorrent.com%3A80&amp;tr=udp%3A%2F%2Fopen.demonii.com%3A1337&amp;tr=udp%3A%2F%2Ftracker.coppersurfer.tk%3A6969&amp;tr=udp%3A%2F%2Fexodus.desync.com%3A6969","seeders":0,"leechers":1,"uploader":"Klambake","files":-1,"time":1310735190,"description":"With: Casey Affleck, Jessica Alba and Kate Hudson\n\nIedereen denkt dat Lou Ford (Casey Affleck) een goede man is. Hij is sheriff in een klein stadje in West-Texas en leidt een onopvallend leven, maar wat niemand weet is dat hij een psychopatische moordenaar is. Lou is een echte sociopaat en zorgt er steeds voor dat niemand zijn geheim ontdekt. Maar wanneer de bewijzen steeds vaker in zijn richting wijzen, wordt hij verplicht om nog meer moorden te plegen...\n\nA West Texas deputy sheriff is slowly unmasked as a psychotic killer. \n\n------------------ Dutch Friends ------------------\nYou can find my Friends at: http://www.Film-Test.nl \n------ They got my dutchs subs ---- and more ------\n\nGeneral:\n\nComplete name                    : The Killer Inside Me\\The Killer Inside Me.avi\nFormat                           : AVI\nFormat/Info                      : Audio Video Interleave\nFile size                        : 1.26 GiB\nDuration                         : 1h 44mn\nOverall bit rate                 : 1 730 Kbps\n\nVideo:\n\nFormat                           : MPEG-4 Visual\nFormat profile                   : Simple@L3\nFormat settings, BVOP            : No\nFormat settings, QPel            : No\nFormat settings, GMC             : No warppoints\nFormat settings, Matrix          : Default (H.263)\nCodec ID                         : XVID\nCodec ID/Hint                    : XviD\nDuration                         : 1h 44mn\nBit rate                         : 1 271 Kbps\nWidth                            : 720 pixels\nHeight                           : 304 pixels\nDisplay aspect ratio             : 2.35:1\nFrame rate                       : 25.000 fps\nColor space                      : YUV\nChroma subsampling               : 4:2:0\nBit depth                        : 8 bits\nScan type                        : Progressive\nBits/(Pixel*Frame)               : 0.232\nStream size                      : 951 MiB (73%)\nWriting library                  : XviD 1.1.2 (UTC 2006-11-01)\n\nAudio:\n\nFormat                           : AC-3\nFormat/Info                      : Audio Coding 3\nMode extension                   : CM (complete main)\nCodec ID                         : 2000\nDuration                         : 1h 44mn\nBit rate mode                    : Constant\nBit rate                         : 448 Kbps\nChannel(s)                       : 6 channels\nChannel positions                : Front: L C R, Side: L R, LFE\nSampling rate                    : 48.0 KHz\nBit depth                        : 16 bits\nStream size                      : 335 MiB (26%)\nAlignment                        : Aligned on interleaves\nInterleave, duration             : 32 ms (0.80 video frame)\nInterleave, preload duration     : 160 ms\n\n","torrent":{"xt":"urn:btih:1ae785bbc019d90548eb73550792c6e661ad2d52","amp;dn":"The+Killer+Inside+Me+2010+DVDrip+Englisk+Klam","amp;tr":["udp%3A%2F%2Ftracker.openbittorrent.com%3A80","udp%3A%2F%2Fopen.demonii.com%3A1337","udp%3A%2F%2Ftracker.coppersurfer.tk%3A6969","udp%3A%2F%2Fexodus.desync.com%3A6969"],"infoHash":"1ae785bbc019d90548eb73550792c6e661ad2d52","infoHashBuffer":{"type":"Buffer","data":[26,231,133,187,192,25,217,5,72,235,115,85,7,146,198,230,97,173,45,82]},"announce":[],"urlList":[]}}